PathFileType	4	(X/Y/Z)	/Users/niels/Desktop/University/Third Semester/Perception and Action/Exam/Gymnastics Motion Tracking/Code for Gym Tracking/Analyzed Data/Webcam_Backflip/id1_2_trajectory_Sports2D/id1_2_trajectory_Sports2D_px_person00.trc
DataRate	CameraRate	NumFrames	NumMarkers	Units	OrigDataRate	OrigDataStartFrame	OrigNumFrames
29.87551867219917	29.87551867219917	12	22	m	29.87551867219917	30	241
Frame#	Time	Hip			RHip			RKnee			RAnkle			RBigToe			RSmallToe			RHeel			LHip			LKnee			LAnkle			LBigToe			LSmallToe			LHeel			Neck			Head			Nose			RShoulder			RElbow			RWrist			LShoulder			LElbow			LWrist		
		X1	Y1	Z1	X2	Y2	Z2	X3	Y3	Z3	X4	Y4	Z4	X5	Y5	Z5	X6	Y6	Z6	X7	Y7	Z7	X8	Y8	Z8	X9	Y9	Z9	X10	Y10	Z10	X11	Y11	Z11	X12	Y12	Z12	X13	Y13	Z13	X14	Y14	Z14	X15	Y15	Z15	X16	Y16	Z16	X17	Y17	Z17	X18	Y18	Z18	X19	Y19	Z19	X20	Y20	Z20	X21	Y21	Z21	X22	Y22	Z22
30	1.0041666666666667	0.9106239080941289	-0.5963717408888346	0.0	0.9120551540302179	-0.5907528829697073	0.0	0.9279031470433303	-0.701797689201275	0.0	0.9100162271395479	-0.811300406885249	0.0	0.9516752663075199	-0.8324246851212519	0.0	0.9435590616735693	-0.8365199649032046	0.0	0.8979561845264586	-0.8255498810622812	0.0	0.9120900862571043	-0.5889207537346544	0.0	0.9266636643232237	-0.6976737377205702	0.0	0.9128988969495871	-0.8046047986992994	0.0	0.9396302248625359	-0.8035708493350561	0.0	0.9153544566716962	-0.7991461812530023	0.0	0.8886397549749739	-0.7982127459316545	0.0	0.9711171518716437	-0.46212741427319426	0.0	1.0351283021446023	-0.4079817790255097	0.0	1.0263339800036715	-0.44442558350619665	0.0	0.9627893236660539	-0.4652260951404622	0.0	0.8941200656022588	-0.46005802356739567	0.0	0.8300145393912365	-0.46137843599389633	0.0	0.9578756437224558	-0.4652061363163492	0.0	0.8918915204001214	-0.4658085155620595	0.0	0.8347458115977759	-0.47569671135637964	0.0
31	1.037638888888889	0.9072344133543605	-0.5912774004570813	0.0	0.9078444399366836	-0.5853910963248146	0.0	0.9284732756256789	-0.696613115763174	0.0	0.9101283064504976	-0.8057694346470814	0.0	0.9521785557262548	-0.8279160118755081	0.0	0.9436133059698812	-0.8316403119367064	0.0	0.8979662102245132	-0.8202406871288564	0.0	0.9089152338292595	-0.583862529174031	0.0	0.9276068188337746	-0.6927775134051088	0.0	0.9128661810032447	-0.7990554841381753	0.0	0.9458545259581095	-0.8125280572559178	0.0	0.9314752960131802	-0.8080279654185821	0.0	0.8915247123342375	-0.8056903724645998	0.0	0.9732984586940153	-0.4605152503696193	0.0	1.0387331821509362	-0.4092147404979307	0.0	1.0290617301544291	-0.44453358141605476	0.0	0.9643269016158661	-0.46190164688408525	0.0	0.8962322073318919	-0.44928575260599574	0.0	0.8310185428396988	-0.44214705262005044	0.0	0.9609534394159344	-0.46333743382606385	0.0	0.8959496590112686	-0.4565805278397573	0.0	0.8371335325755263	-0.4556197394637112	0.0
32	1.0711111111111111	0.9033080339891856	-0.5857754984789078	0.0	0.9030505199500116	-0.5800504650139648	0.0	0.9305841568636131	-0.6901820649745162	0.0	0.9102095440719721	-0.7987918617711234	0.0	0.952793435905607	-0.8216404583675463	0.0	0.9438570532782273	-0.825117484601576	0.0	0.897937332468109	-0.8134624999268306	0.0	0.9058708461451812	-0.5789223565385343	0.0	0.9300765879571333	-0.6867204420009163	0.0	0.9127047279177855	-0.7921490882459283	0.0	0.949906148818986	-0.8148149721795135	0.0	0.9422006948853227	-0.8104433939935638	0.0	0.893104229621204	-0.8067724120531841	0.0	0.9758536907044437	-0.458689832295622	0.0	1.041875626663028	-0.41087014402774796	0.0	1.0317172685520442	-0.4449461871721525	0.0	0.9655249553925048	-0.4589956422270318	0.0	0.8986677113198248	-0.44073736648196454	0.0	0.8331685374163574	-0.42744148086639056	0.0	0.9642650344140339	-0.4618723973550164	0.0	0.9000703910833071	-0.4487024503504327	0.0	0.8403405601222682	-0.43842033134973	0.0
33	1.1045833333333333	0.8990228482054846	-0.5806674922615926	0.0	0.89806573085797	-0.5755643638914817	0.0	0.9344385740723777	-0.6831339201821304	0.0	0.910432295784245	-0.7908774406833505	0.0	0.9533667784301245	-0.8142701105205272	0.0	0.9442769199507228	-0.8175505324486798	0.0	0.8980052616992554	-0.8056706194991309	0.0	0.9029597931456135	-0.5748291117728022	0.0	0.9342274784593988	-0.6800365327146489	0.0	0.9126191391779626	-0.7844723444950503	0.0	0.9522800348846964	-0.8122883195756199	0.0	0.9482103274591378	-0.8081782432948583	0.0	0.8937974187892146	-0.8028943858514098	0.0	0.978531343170827	-0.4574540466779039	0.0	1.0444571346120786	-0.413321739981216	0.0	1.0342669036524117	-0.4461064896641573	0.0	0.9664058538525068	-0.4572044517697268	0.0	0.9011629471953403	-0.4347394789191492	0.0	0.835676889703292	-0.41710272334266124	0.0	0.9672635341218	-0.46124339382314866	0.0	0.9036019386957546	-0.4424073175216815	0.0	0.8433798842228076	-0.4248900706931003	0.0
34	1.1380555555555556	0.8947099195862303	-0.5768348826552792	0.0	0.8933407849420019	-0.5727352348605013	0.0	0.939742118339999	-0.6762623448692355	0.0	0.9109340317397226	-0.7827808390142231	0.0	0.9538926636363229	-0.8067331508709819	0.0	0.9448518313711968	-0.8098134912283174	0.0	0.8982396102892842	-0.7976190646480871	0.0	0.9001460196080736	-0.5722422640421807	0.0	0.9397840333355126	-0.6733902617327661	0.0	0.9127482013566363	-0.7767486987839346	0.0	0.953603462551666	-0.8072798006586716	0.0	0.9510257609669738	-0.8035440747455972	0.0	0.8939908924232939	-0.7961908054654792	0.0	0.9810159035906905	-0.457637465331755	0.0	1.0463445063717418	-0.4168194236380176	0.0	1.0365787692773691	-0.4483491603301967	0.0	0.9670336660415743	-0.45717940472423224	0.0	0.9033402479105698	-0.4316404617924944	0.0	0.8377829864923321	-0.41092949153006486	0.0	0.969544168449066	-0.4618791354684314	0.0	0.9060453981431299	-0.43823568373944705	0.0	0.8455307133019765	-0.41565554565161345	0.0
35	1.1715277777777777	0.8907677822622849	-0.575115718680751	0.0	0.8892780924511301	-0.5722542862281437	0.0	0.9458435608378084	-0.6704661105290032	0.0	0.911732505115439	-0.7754593813291693	0.0	0.9544173762942013	-0.8000593150013209	0.0	0.9454811942083577	-0.8029376238680866	0.0	0.8986173572610984	-0.7902858611237509	0.0	0.8974200741429575	-0.5717578551060155	0.0	0.9461077283929296	-0.6676012755436862	0.0	0.913120816284758	-0.7698128951965008	0.0	0.9543512620056386	-0.8017630288652042	0.0	0.9520090662673937	-0.7984999396829978	0.0	0.8939013092284139	-0.7887744095540863	0.0	0.9830756298573219	-0.45992852541622187	0.0	1.0474227319747869	-0.4214716357445283	0.0	1.0384686422905276	-0.4519083674309016	0.0	0.9674799640535767	-0.4594247454810058	0.0	0.9047693345029558	-0.43185508007633927	0.0	0.8388630288681478	-0.40915602648389926	0.0	0.9710430805222111	-0.46427450278470084	0.0	0.9071872756621507	-0.43705437748837284	0.0	0.846495281509159	-0.4114428066830943	0.0
36	1.205	0.8874843461268238	-0.5761726788324159	0.0	0.8861276451421001	-0.5746451202269238	0.0	0.9520390064926212	-0.6666691819470331	0.0	0.9127205367433476	-0.7699568372297523	0.0	0.9549335023922302	-0.7952053783136211	0.0	0.9460257725313272	-0.797933832654227	0.0	0.8990382322070665	-0.7847321037939161	0.0	0.894784109425033	-0.5738856250846381	0.0	0.9524317287834764	-0.6636219170937916	0.0	0.9136671293747496	-0.7646186818474848	0.0	0.9548346447414874	-0.7972493005133304	0.0	0.9520934475035042	-0.7944555188369545	0.0	0.8936372601117529	-0.7824550245135462	0.0	0.9846675936709445	-0.46469286043889274	0.0	1.0476481292541007	-0.4272477560288954	0.0	1.0397953669916802	-0.45690701327357697	0.0	0.9677835329660013	-0.4642430860127473	0.0	0.9051471243740051	-0.4358524845891955	0.0	0.8385429872233926	-0.4125815081352256	0.0	0.971987875791038	-0.4689393241757679	0.0	0.9071843963560273	-0.43989401909340226	0.0	0.8463162613076773	-0.4132943155873674	0.0
37	1.2384722222222222	0.8849833530944756	-0.5804254893301471	0.0	0.8839527696521007	-0.5802130737912577	0.0	0.9578049855804852	-0.6657309723385072	0.0	0.9137524238960294	-0.7672529585156539	0.0	0.9553836727957651	-0.7929337385008202	0.0	0.9463946671477956	-0.7956194089006795	0.0	0.8994030543666699	-0.7819414615340761	0.0	0.8922507694841963	-0.5789703247355904	0.0	0.9580839881690275	-0.6624021125140046	0.0	0.9142770680061599	-0.7621397732873522	0.0	0.9552681015503903	-0.7948599202404294	0.0	0.9518355090514888	-0.7923558100779015	0.0	0.8933080853123284	-0.7786360505684917	0.0	0.9858812580528218	-0.4719522195119844	0.0	1.0470468355706744	-0.43404582279773807	0.0	1.0404847996791546	-0.46331671693044535	0.0	0.9679679874912804	-0.4717746902330986	0.0	0.9044094606625258	-0.44419680028143493	0.0	0.8368531286154596	-0.42241077294773277	0.0	0.9726493976062881	-0.4762261941360383	0.0	0.9064406558503408	-0.4477461517536	0.0	0.8452481381613643	-0.4224920671813423	0.0
38	1.2719444444444445	0.8833210704788275	-0.5880333470939095	0.0	0.882729926765878	-0.588995645115833	0.0	0.9628417114210686	-0.6683731695609625	0.0	0.9147213498866656	-0.7681526964471307	0.0	0.9556936834239961	-0.7938047898918748	0.0	0.9465497427387726	-0.796554996416287	0.0	0.8996812853807905	-0.7826869384518232	0.0	0.8899008527045219	-0.587117296127993	0.0	0.9625782159119385	-0.6647629566539399	0.0	0.9148606785962485	-0.7632189967251831	0.0	0.9557853031636162	-0.7953656150242716	0.0	0.9515321394008956	-0.7928646091726422	0.0	0.8930849869858828	-0.7783274674729846	0.0	0.986761846147979	-0.48147608697468597	0.0	1.045670960698355	-0.4417852199762427	0.0	1.040467273608533	-0.47095342365462195	0.0	0.9680701597637507	-0.48202604697497753	0.0	0.9027471665780712	-0.45756447874776496	0.0	0.8343806654991366	-0.43996825574744836	0.0	0.9731232173751254	-0.4861433027844388	0.0	0.905386604996109	-0.46131631957970154	0.0	0.8438322870603923	-0.4402007377407502	0.0
39	1.3054166666666667	0.8825681659840758	-0.5988728883377641	0.0	0.8824735267710841	-0.6007236962882793	0.0	0.9669861266440831	-0.6751150527010417	0.0	0.9155677767152465	-0.7732037342113827	0.0	0.9557618980902847	-0.79822252941954	0.0	0.9464501554310251	-0.8010860651836498	0.0	0.8999058413701431	-0.7874211030297965	0.0	0.887940209475265	-0.598158989991627	0.0	0.965630262671256	-0.6712973810025937	0.0	0.9153702411810073	-0.7684405271223604	0.0	0.9564136043338852	-0.799242198982827	0.0	0.9513203613771845	-0.7965367835156234	0.0	0.8931671673038227	-0.7821691892842665	0.0	0.9871826750276301	-0.49280345996750263	0.0	1.0435081639753694	-0.4503480931808779	0.0	1.0396193283246833	-0.4794894018682974	0.0	0.9680855275770242	-0.4947863533494513	0.0	0.9006828828395034	-0.4765662391992848	0.0	0.8324651306827493	-0.4662642435363	0.0	0.9732681638828731	-0.4982609504498297	0.0	0.9044254030464179	-0.48070934058376985	0.0	0.843158568006328	-0.4668958900657233	0.0
40	1.338888888888889	0.8827816770680232	-0.6124938925065282	0.0	0.8832367893604649	-0.614820532976728	0.0	0.9701191514578276	-0.6861774027724497	0.0	0.9162653615988743	-0.7826044088902397	0.0	0.9554873303298892	-0.8064153693292879	0.0	0.946064999205249	-0.8093680320792833	0.0	0.900136786595075	-0.796193375454446	0.0	0.8866679779869036	-0.6116373055810778	0.0	0.967163842487315	-0.6822084224730945	0.0	0.9157875443520881	-0.778009697820351	0.0	0.9571088056738198	-0.8067039385164616	0.0	0.9512437638487079	-0.8038262060360526	0.0	0.8936811206498858	-0.790348805646451	0.0	0.9868197144611922	-0.5051940074856901	0.0	1.0403370147623854	-0.4593815703019739	0.0	1.0377251747750218	-0.4884338191673117	0.0	0.9678517298654964	-0.5094681392805608	0.0	0.899237389923184	-0.5012823982776036	0.0	0.8334483957879216	-0.501271388893936	0.0	0.9727527788708683	-0.5117603340691768	0.0	0.904184083503898	-0.505272016499746	0.0	0.8452193493316709	-0.5018038230482499	0.0
41	1.3723611111111111	0.8839293979010351	-0.6280762310743165	0.0	0.8850143963770913	-0.6304306785446047	0.0	0.972121012290997	-0.7012896256165176	0.0	0.9168145044351677	-0.7960680214948672	0.0	0.9548517196756294	-0.8183076111492142	0.0	0.9454495712009878	-0.8212922425310993	0.0	0.9004262301901076	-0.8085918819774983	0.0	0.8863555210218971	-0.6267956178658131	0.0	0.9672994018419876	-0.6971113373728013	0.0	0.9160816081667282	-0.7916260629646997	0.0	0.9578483566297293	-0.8176457685495385	0.0	0.9512624723065835	-0.8148873000581314	0.0	0.8946079866257073	-0.802452765029248	0.0	0.9852014971590908	-0.5176366535210567	0.0	1.035618692011976	-0.46818160660065256	0.0	1.0344496831306325	-0.49710219015682944	0.0	0.9669984814954389	-0.5249914000819799	0.0	0.9000060427249967	-0.5306128568926578	0.0	0.8406733655000982	-0.5429604019659565	0.0	0.9711518637874719	-0.525559008160988	0.0	0.9058394123766067	-0.5335143546829293	0.0	0.8530432452852292	-0.5423778730812873	0.0
